<svg data-v-58827bad="" xmlns="http://www.w3.org/2000/svg" xmlns:xlink="http://www.w3.org/1999/xlink" fill="none" version="1.1" width="1em" height="1em" viewBox="0 0 14 14" class="" style="font-size: 14px; transform: rotate(0deg);">
  <clipPath id="master_svg0_73_0546/3_8821">
    <rect x="0" y="0" width="14" height="14" rx="0"></rect>
  </clipPath>
  <g clip-path="url(#master_svg0_73_0546/3_8821)">
    <g>
      <g>
        <path d="M3.5,1.3C3.5,1.134315,3.63431,1,3.8,1L10.2,1C10.36569,1,10.5,1.134315,10.5,1.3L10.5,1.7C10.5,1.865685,10.36569,2,10.2,2L3.8,2C3.63431,2,3.5,1.865685,3.5,1.7L3.5,1.3ZM1.7,3.5C1.865685,3.5,2,3.63431,2,3.8L2,10.2C2,10.36569,1.865685,10.5,1.7,10.5L1.3,10.5C1.134315,10.5,1,10.36569,1,10.2L1,3.8C1,3.63431,1.134315,3.5,1.3,3.5L1.7,3.5ZM12.7,3.5C12.8657,3.5,13,3.63431,13,3.8L13,10.2C13,10.36569,12.8657,10.5,12.7,10.5L12.3,10.5C12.1343,10.5,12,10.36569,12,10.2L12,3.8C12,3.63431,12.1343,3.5,12.3,3.5L12.7,3.5ZM3.5,12.3C3.5,12.1343,3.63431,12,3.8,12L10.2,12C10.36569,12,10.5,12.1343,10.5,12.3L10.5,12.7C10.5,12.8657,10.36569,13,10.2,13L3.8,13C3.63431,13,3.5,12.8657,3.5,12.7L3.5,12.3Z" fill-rule="evenodd" fill="currentcolor" fill-opacity="0.8500000238418579"></path>
      </g>
    </g>
  </g>
</svg>