<svg width="14px" height="14px" viewBox="0 0 14 14" fill="none" xmlns="http://www.w3.org/2000/svg" opacity="0.7" style="font-size: 14px; transform: rotate(0deg);">
  <path fill-rule="evenodd" clip-rule="evenodd" d="M1.5 2.8C1.5 2.63431 1.63431 2.5 1.8 2.5H12.2C12.3657 2.5 12.5 2.63431 12.5 2.8V3.2C12.5 3.36569 12.3657 3.5 12.2 3.5H1.8C1.63431 3.5 1.5 3.36569 1.5 3.2V2.8ZM1.5 5.3C1.5 5.13431 1.63431 5 1.8 5H12.2C12.3657 5 12.5 5.13431 12.5 5.3V6.7C12.5 6.86569 12.3657 7 12.2 7H1.8C1.63431 7 1.5 6.86569 1.5 6.7V5.3ZM12.5 8.8C12.5 8.63431 12.3657 8.5 12.2 8.5H1.8C1.63431 8.5 1.5 8.63431 1.5 8.8V11.2C1.5 11.3657 1.63431 11.5 1.8 11.5H12.2C12.3657 11.5 12.5 11.3657 12.5 11.2V8.8Z" fill="currentcolor"></path>
</svg>