<svg data-v-58827bad="" width="1em" height="1em" viewBox="0 0 14 14" fill="none" xmlns="http://www.w3.org/2000/svg" class="" style="font-size: 14px; transform: rotate(0deg);">
  <path fill-rule="evenodd" clip-rule="evenodd" d="M6.5 12.7C6.5 12.8657 6.63431 13 6.8 13H7.2C7.36568 13 7.5 12.8657 7.5 12.7V7.5H12.7C12.8657 7.5 13 7.36569 13 7.2V6.8C13 6.63431 12.8657 6.5 12.7 6.5H7.5V1.3C7.5 1.13432 7.36569 1 7.2 1H6.8C6.63431 1 6.5 1.13431 6.5 1.3V6.5H1.3C1.13431 6.5 1 6.63431 1 6.8V7.2C1 7.36569 1.13431 7.5 1.3 7.5H6.5V12.7Z" fill="currentcolor"></path>
</svg>