<svg data-v-58827bad="" width="14px" height="14px" viewBox="0 0 14 14" fill="none" xmlns="http://www.w3.org/2000/svg" class="" style="font-size: 14px; transform: rotate(0deg);">
  <path d="M7 4.5C7.82843 4.5 8.5 3.82843 8.5 3C8.5 2.17157 7.82843 1.5 7 1.5C6.17157 1.5 5.5 2.17157 5.5 3C5.5 3.82843 6.17157 4.5 7 4.5Z" fill="currentcolor"></path>
  <path d="M10.9999 8.50037C11.8283 8.50037 12.4999 7.8288 12.4999 7.00037C12.4999 6.17195 11.8283 5.50037 10.9999 5.50037C10.1715 5.50037 9.49989 6.17195 9.49989 7.00037C9.49989 7.8288 10.1715 8.50037 10.9999 8.50037Z" fill="currentcolor"></path>
  <path d="M8.5 11.0003C8.5 11.8287 7.82843 12.5003 7 12.5003C6.17157 12.5003 5.5 11.8287 5.5 11.0003C5.5 10.1718 6.17157 9.50026 7 9.50026C7.82843 9.50026 8.5 10.1718 8.5 11.0003Z" fill="currentcolor"></path>
  <path d="M3 8.5C3.82843 8.5 4.5 7.82843 4.5 7C4.5 6.17157 3.82843 5.5 3 5.5C2.17157 5.5 1.5 6.17157 1.5 7C1.5 7.82843 2.17157 8.5 3 8.5Z" fill="currentcolor"></path>
</svg>